<svg xmlns="http://www.w3.org/2000/svg" width="1000" height="500"><g transform="translate(40 20)"><g class="x axis" transform="translate(0 405)"><g class="tick" style="opacity: 1;" transform="translate(20.5)"><line x2="0" y2="0" /><text style="font-size: 20px; text-anchor: start;" transform="rotate(90)" x="0" y="3" dx="0.5em" dy="0.15em">Jupyter Notebook</text></g><g class="tick" style="opacity: 1;" transform="translate(50.5)"><line x2="0" y2="0" /><text style="font-size: 20px; text-anchor: start;" transform="rotate(90)" x="0" y="3" dx="0.5em" dy="0.15em">C#</text></g><g class="tick" style="opacity: 1;" transform="translate(80.5)"><line x2="0" y2="0" /><text style="font-size: 20px; text-anchor: start;" transform="rotate(90)" x="0" y="3" dx="0.5em" dy="0.15em">Java</text></g><g class="tick" style="opacity: 1;" transform="translate(110.5)"><line x2="0" y2="0" /><text style="font-size: 20px; text-anchor: start;" transform="rotate(90)" x="0" y="3" dx="0.5em" dy="0.15em">C++</text></g><g class="tick" style="opacity: 1;" transform="translate(140.5)"><line x2="0" y2="0" /><text style="font-size: 20px; text-anchor: start;" transform="rotate(90)" x="0" y="3" dx="0.5em" dy="0.15em">Python</text></g><g class="tick" style="opacity: 1;" transform="translate(170.5)"><line x2="0" y2="0" /><text style="font-size: 20px; text-anchor: start;" transform="rotate(90)" x="0" y="3" dx="0.5em" dy="0.15em">Swift</text></g><g class="tick" style="opacity: 1;" transform="translate(200.5)"><line x2="0" y2="0" /><text style="font-size: 20px; text-anchor: start;" transform="rotate(90)" x="0" y="3" dx="0.5em" dy="0.15em">PowerShell</text></g><g class="tick" style="opacity: 1;" transform="translate(230.5)"><line x2="0" y2="0" /><text style="font-size: 20px; text-anchor: start;" transform="rotate(90)" x="0" y="3" dx="0.5em" dy="0.15em">HTML</text></g><g class="tick" style="opacity: 1;" transform="translate(260.5)"><line x2="0" y2="0" /><text style="font-size: 20px; text-anchor: start;" transform="rotate(90)" x="0" y="3" dx="0.5em" dy="0.15em">JavaScript</text></g><g class="tick" style="opacity: 1;" transform="translate(290.5)"><line x2="0" y2="0" /><text style="font-size: 20px; text-anchor: start;" transform="rotate(90)" x="0" y="3" dx="0.5em" dy="0.15em">C</text></g><g class="tick" style="opacity: 1;" transform="translate(320.5)"><line x2="0" y2="0" /><text style="font-size: 20px; text-anchor: start;" transform="rotate(90)" x="0" y="3" dx="0.5em" dy="0.15em">LLVM</text></g><g class="tick" style="opacity: 1;" transform="translate(350.5)"><line x2="0" y2="0" /><text style="font-size: 20px; text-anchor: start;" transform="rotate(90)" x="0" y="3" dx="0.5em" dy="0.15em">Go</text></g><g class="tick" style="opacity: 1;" transform="translate(380.5)"><line x2="0" y2="0" /><text style="font-size: 20px; text-anchor: start;" transform="rotate(90)" x="0" y="3" dx="0.5em" dy="0.15em">TypeScript</text></g><g class="tick" style="opacity: 1;" transform="translate(410.5)"><line x2="0" y2="0" /><text style="font-size: 20px; text-anchor: start;" transform="rotate(90)" x="0" y="3" dx="0.5em" dy="0.15em">Shell</text></g><g class="tick" style="opacity: 1;" transform="translate(440.5)"><line x2="0" y2="0" /><text style="font-size: 20px; text-anchor: start;" transform="rotate(90)" x="0" y="3" dx="0.5em" dy="0.15em">OpenEdge ABL</text></g><g class="tick" style="opacity: 1;" transform="translate(470.5)"><line x2="0" y2="0" /><text style="font-size: 20px; text-anchor: start;" transform="rotate(90)" x="0" y="3" dx="0.5em" dy="0.15em">Ruby</text></g><g class="tick" style="opacity: 1;" transform="translate(500.5)"><line x2="0" y2="0" /><text style="font-size: 20px; text-anchor: start;" transform="rotate(90)" x="0" y="3" dx="0.5em" dy="0.15em">Dart</text></g><g class="tick" style="opacity: 1;" transform="translate(530.5)"><line x2="0" y2="0" /><text style="font-size: 20px; text-anchor: start;" transform="rotate(90)" x="0" y="3" dx="0.5em" dy="0.15em">Groovy</text></g><g class="tick" style="opacity: 1;" transform="translate(560.5)"><line x2="0" y2="0" /><text style="font-size: 20px; text-anchor: start;" transform="rotate(90)" x="0" y="3" dx="0.5em" dy="0.15em">PHP</text></g><g class="tick" style="opacity: 1;" transform="translate(590.5)"><line x2="0" y2="0" /><text style="font-size: 20px; text-anchor: start;" transform="rotate(90)" x="0" y="3" dx="0.5em" dy="0.15em">CSS</text></g><g class="tick" style="opacity: 1;" transform="translate(620.5)"><line x2="0" y2="0" /><text style="font-size: 20px; text-anchor: start;" transform="rotate(90)" x="0" y="3" dx="0.5em" dy="0.15em">Scala</text></g><g class="tick" style="opacity: 1;" transform="translate(650.5)"><line x2="0" y2="0" /><text style="font-size: 20px; text-anchor: start;" transform="rotate(90)" x="0" y="3" dx="0.5em" dy="0.15em">F#</text></g><g class="tick" style="opacity: 1;" transform="translate(680.5)"><line x2="0" y2="0" /><text style="font-size: 20px; text-anchor: start;" transform="rotate(90)" x="0" y="3" dx="0.5em" dy="0.15em">COBOL</text></g><g class="tick" style="opacity: 1;" transform="translate(710.5)"><line x2="0" y2="0" /><text style="font-size: 20px; text-anchor: start;" transform="rotate(90)" x="0" y="3" dx="0.5em" dy="0.15em">MATLAB</text></g><g class="tick" style="opacity: 1;" transform="translate(740.5)"><line x2="0" y2="0" /><text style="font-size: 20px; text-anchor: start;" transform="rotate(90)" x="0" y="3" dx="0.5em" dy="0.15em">Kotlin</text></g><g class="tick" style="opacity: 1;" transform="translate(770.5)"><line x2="0" y2="0" /><text style="font-size: 20px; text-anchor: start;" transform="rotate(90)" x="0" y="3" dx="0.5em" dy="0.15em">Haskell</text></g><g class="tick" style="opacity: 1;" transform="translate(800.5)"><line x2="0" y2="0" /><text style="font-size: 20px; text-anchor: start;" transform="rotate(90)" x="0" y="3" dx="0.5em" dy="0.15em">XML</text></g><g class="tick" style="opacity: 1;" transform="translate(830.5)"><line x2="0" y2="0" /><text style="font-size: 20px; text-anchor: start;" transform="rotate(90)" x="0" y="3" dx="0.5em" dy="0.15em">Objective-C</text></g><g class="tick" style="opacity: 1;" transform="translate(860.5)"><line x2="0" y2="0" /><text style="font-size: 20px; text-anchor: start;" transform="rotate(90)" x="0" y="3" dx="0.5em" dy="0.15em">Rust</text></g><g class="tick" style="opacity: 1;" transform="translate(890.5)"><line x2="0" y2="0" /><text style="font-size: 20px; text-anchor: start;" transform="rotate(90)" x="0" y="3" dx="0.5em" dy="0.15em">R</text></g><g class="tick" style="opacity: 1;" transform="translate(920.5)"><line x2="0" y2="0" /><text style="font-size: 20px; text-anchor: start;" transform="rotate(90)" x="0" y="3" dx="0.5em" dy="0.15em">Makefile</text></g><path class="domain" d="M 0 0 V 0 H 940 V 0" /></g><g class="y axis" style="opacity: 1;"><g class="tick" style="opacity: 1;" transform="translate(0 405)"><line x2="-6" y2="0" /><text style="text-anchor: end;" x="-9" y="0" dy="0.32em">0</text></g><g class="tick" style="opacity: 1;" transform="translate(0 374.968)"><line x2="-6" y2="0" /><text style="text-anchor: end;" x="-9" y="0" dy="0.32em">2</text></g><g class="tick" style="opacity: 1;" transform="translate(0 344.935)"><line x2="-6" y2="0" /><text style="text-anchor: end;" x="-9" y="0" dy="0.32em">4</text></g><g class="tick" style="opacity: 1;" transform="translate(0 314.903)"><line x2="-6" y2="0" /><text style="text-anchor: end;" x="-9" y="0" dy="0.32em">6</text></g><g class="tick" style="opacity: 1;" transform="translate(0 284.871)"><line x2="-6" y2="0" /><text style="text-anchor: end;" x="-9" y="0" dy="0.32em">8</text></g><g class="tick" style="opacity: 1;" transform="translate(0 254.838)"><line x2="-6" y2="0" /><text style="text-anchor: end;" x="-9" y="0" dy="0.32em">10</text></g><g class="tick" style="opacity: 1;" transform="translate(0 224.806)"><line x2="-6" y2="0" /><text style="text-anchor: end;" x="-9" y="0" dy="0.32em">12</text></g><g class="tick" style="opacity: 1;" transform="translate(0 194.774)"><line x2="-6" y2="0" /><text style="text-anchor: end;" x="-9" y="0" dy="0.32em">14</text></g><g class="tick" style="opacity: 1;" transform="translate(0 164.742)"><line x2="-6" y2="0" /><text style="text-anchor: end;" x="-9" y="0" dy="0.32em">16</text></g><g class="tick" style="opacity: 1;" transform="translate(0 134.709)"><line x2="-6" y2="0" /><text style="text-anchor: end;" x="-9" y="0" dy="0.32em">18</text></g><g class="tick" style="opacity: 1;" transform="translate(0 104.677)"><line x2="-6" y2="0" /><text style="text-anchor: end;" x="-9" y="0" dy="0.32em">20</text></g><g class="tick" style="opacity: 1;" transform="translate(0 74.6446)"><line x2="-6" y2="0" /><text style="text-anchor: end;" x="-9" y="0" dy="0.32em">22</text></g><g class="tick" style="opacity: 1;" transform="translate(0 44.6123)"><line x2="-6" y2="0" /><text style="text-anchor: end;" x="-9" y="0" dy="0.32em">24</text></g><g class="tick" style="opacity: 1;" transform="translate(0 14.58)"><line x2="-6" y2="0" /><text style="text-anchor: end;" x="-9" y="0" dy="0.32em">26</text></g><path class="domain" d="M -6 0 H 0 V 405 H -6" /><text style="font-weight: bold; text-anchor: end;" transform="rotate(-90)" y="6" dy="0.71em">Percentage (%)</text></g><g class="g" transform="translate(7)"><rect style="fill: #ca0020;" x="1" y="255.462" width="13" height="149.538" /><rect style="fill: #92c5de;" x="14" y="280.36" width="13" height="124.64" /></g><g class="g" transform="translate(37)"><rect style="fill: #ca0020;" x="1" y="0" width="13" height="405" /><rect style="fill: #92c5de;" x="14" y="381.259" width="13" height="23.741" /></g><g class="g" transform="translate(67)"><rect style="fill: #ca0020;" x="1" y="317.769" width="13" height="87.2308" /><rect style="fill: #92c5de;" x="14" y="131.979" width="13" height="273.021" /></g><g class="g" transform="translate(97)"><rect style="fill: #ca0020;" x="1" y="299.077" width="13" height="105.923" /><rect style="fill: #92c5de;" x="14" y="274.425" width="13" height="130.575" /></g><g class="g" transform="translate(127)"><rect style="fill: #ca0020;" x="1" y="305.308" width="13" height="99.6923" /><rect style="fill: #92c5de;" x="14" y="256.619" width="13" height="148.381" /></g><g class="g" transform="translate(157)"><rect style="fill: #ca0020;" x="1" y="398.769" width="13" height="6.23077" /><rect style="fill: #92c5de;" x="14" y="399.065" width="13" height="5.93524" /></g><g class="g" transform="translate(187)"><rect style="fill: #ca0020;" x="1" y="386.308" width="13" height="18.6923" /><rect style="fill: #92c5de;" x="14" y="405" width="13" height="0" /></g><g class="g" transform="translate(217)"><rect style="fill: #ca0020;" x="1" y="299.077" width="13" height="105.923" /><rect style="fill: #92c5de;" x="14" y="274.425" width="13" height="130.575" /></g><g class="g" transform="translate(247)"><rect style="fill: #ca0020;" x="1" y="199.385" width="13" height="205.615" /><rect style="fill: #92c5de;" x="14" y="137.914" width="13" height="267.086" /></g><g class="g" transform="translate(277)"><rect style="fill: #ca0020;" x="1" y="311.538" width="13" height="93.4615" /><rect style="fill: #92c5de;" x="14" y="315.971" width="13" height="89.0286" /></g><g class="g" transform="translate(307)"><rect style="fill: #ca0020;" x="1" y="398.769" width="13" height="6.23077" /><rect style="fill: #92c5de;" x="14" y="405" width="13" height="0" /></g><g class="g" transform="translate(337)"><rect style="fill: #ca0020;" x="1" y="367.615" width="13" height="37.3846" /><rect style="fill: #92c5de;" x="14" y="357.518" width="13" height="47.4819" /></g><g class="g" transform="translate(367)"><rect style="fill: #ca0020;" x="1" y="324" width="13" height="81" /><rect style="fill: #92c5de;" x="14" y="339.712" width="13" height="65.2876" /></g><g class="g" transform="translate(397)"><rect style="fill: #ca0020;" x="1" y="373.846" width="13" height="31.1538" /><rect style="fill: #92c5de;" x="14" y="399.065" width="13" height="5.93524" /></g><g class="g" transform="translate(427)"><rect style="fill: #ca0020;" x="1" y="398.769" width="13" height="6.23077" /><rect style="fill: #92c5de;" x="14" y="405" width="13" height="0" /></g><g class="g" transform="translate(457)"><rect style="fill: #ca0020;" x="1" y="392.538" width="13" height="12.4615" /><rect style="fill: #92c5de;" x="14" y="405" width="13" height="0" /></g><g class="g" transform="translate(487)"><rect style="fill: #ca0020;" x="1" y="398.769" width="13" height="6.23077" /><rect style="fill: #92c5de;" x="14" y="369.389" width="13" height="35.6114" /></g><g class="g" transform="translate(517)"><rect style="fill: #ca0020;" x="1" y="398.769" width="13" height="6.23077" /><rect style="fill: #92c5de;" x="14" y="405" width="13" height="0" /></g><g class="g" transform="translate(547)"><rect style="fill: #ca0020;" x="1" y="398.769" width="13" height="6.23077" /><rect style="fill: #92c5de;" x="14" y="339.712" width="13" height="65.2876" /></g><g class="g" transform="translate(577)"><rect style="fill: #ca0020;" x="1" y="398.769" width="13" height="6.23077" /><rect style="fill: #92c5de;" x="14" y="387.194" width="13" height="17.8057" /></g><g class="g" transform="translate(607)"><rect style="fill: #ca0020;" x="1" y="398.769" width="13" height="6.23077" /><rect style="fill: #92c5de;" x="14" y="393.13" width="13" height="11.8705" /></g><g class="g" transform="translate(637)"><rect style="fill: #ca0020;" x="1" y="398.769" width="13" height="6.23077" /><rect style="fill: #92c5de;" x="14" y="405" width="13" height="0" /></g><g class="g" transform="translate(667)"><rect style="fill: #ca0020;" x="1" y="398.769" width="13" height="6.23077" /><rect style="fill: #92c5de;" x="14" y="405" width="13" height="0" /></g><g class="g" transform="translate(697)"><rect style="fill: #ca0020;" x="1" y="398.769" width="13" height="6.23077" /><rect style="fill: #92c5de;" x="14" y="405" width="13" height="0" /></g><g class="g" transform="translate(727)"><rect style="fill: #ca0020;" x="1" y="405" width="13" height="0" /><rect style="fill: #92c5de;" x="14" y="399.065" width="13" height="5.93524" /></g><g class="g" transform="translate(757)"><rect style="fill: #ca0020;" x="1" y="405" width="13" height="0" /><rect style="fill: #92c5de;" x="14" y="399.065" width="13" height="5.93524" /></g><g class="g" transform="translate(787)"><rect style="fill: #ca0020;" x="1" y="405" width="13" height="0" /><rect style="fill: #92c5de;" x="14" y="399.065" width="13" height="5.93524" /></g><g class="g" transform="translate(817)"><rect style="fill: #ca0020;" x="1" y="405" width="13" height="0" /><rect style="fill: #92c5de;" x="14" y="393.13" width="13" height="11.8705" /></g><g class="g" transform="translate(847)"><rect style="fill: #ca0020;" x="1" y="405" width="13" height="0" /><rect style="fill: #92c5de;" x="14" y="387.194" width="13" height="17.8057" /></g><g class="g" transform="translate(877)"><rect style="fill: #ca0020;" x="1" y="405" width="13" height="0" /><rect style="fill: #92c5de;" x="14" y="399.065" width="13" height="5.93524" /></g><g class="g" transform="translate(907)"><rect style="fill: #ca0020;" x="1" y="405" width="13" height="0" /><rect style="fill: #92c5de;" x="14" y="399.065" width="13" height="5.93524" /></g><g class="legend" style="opacity: 1;" transform="translate(0)"><rect style="fill: #92c5de;" x="922" width="18" height="18" /><text style="text-anchor: end;" x="916" y="9" dy="0.35em">google</text></g><g class="legend" style="opacity: 1;" transform="translate(0 20)"><rect style="fill: #ca0020;" x="922" width="18" height="18" /><text style="text-anchor: end;" x="916" y="9" dy="0.35em">microsoft</text></g></g></svg><rect style="fill: #ca0020;" x="1" y="357.353" width="6" height="47.6471" /><rect style="fill: #92c5de;" x="7" y="132.677" width="6" height="272.323" /></g><g class="g" transform="translate(156)"><rect style="fill: #ca0020;" x="1" y="262.059" width="6" height="142.941" /><rect style="fill: #92c5de;" x="7" y="223.452" width="6" height="181.548" /></g><g class="g" transform="translate(170)"><rect style="fill: #ca0020;" x="1" y="238.235" width="6" height="166.765" /><rect style="fill: #92c5de;" x="7" y="178.064" width="6" height="226.936" /></g><g class="g" transform="translate(184)"><rect style="fill: #ca0020;" x="1" y="214.412" width="6" height="190.588" /><rect style="fill: #92c5de;" x="7" y="246.145" width="6" height="158.855" /></g><g class="g" transform="translate(198)"><rect style="fill: #ca0020;" x="1" y="214.412" width="6" height="190.588" /><rect style="fill: #92c5de;" x="7" y="132.677" width="6" height="272.323" /></g><g class="g" transform="translate(212)"><rect style="fill: #ca0020;" x="1" y="166.765" width="6" height="238.235" /><rect style="fill: #92c5de;" x="7" y="155.371" width="6" height="249.629" /></g><g class="g" transform="translate(226)"><rect style="fill: #ca0020;" x="1" y="214.412" width="6" height="190.588" /><rect style="fill: #92c5de;" x="7" y="178.064" width="6" height="226.936" /></g><g class="g" transform="translate(240)"><rect style="fill: #ca0020;" x="1" y="119.118" width="6" height="285.882" /><rect style="fill: #92c5de;" x="7" y="223.452" width="6" height="181.548" /></g><g class="g" transform="translate(254)"><rect style="fill: #ca0020;" x="1" y="0" width="6" height="405" /><rect style="fill: #92c5de;" x="7" y="314.226" width="6" height="90.7742" /></g><g class="g" transform="translate(268)"><rect style="fill: #ca0020;" x="1" y="285.882" width="6" height="119.118" /><rect style="fill: #92c5de;" x="7" y="223.452" width="6" height="181.548" /></g><g class="g" transform="translate(282)"><rect style="fill: #ca0020;" x="1" y="95.2941" width="6" height="309.706" /><rect style="fill: #92c5de;" x="7" y="223.452" width="6" height="181.548" /></g><g class="g" transform="translate(296)"><rect style="fill: #ca0020;" x="1" y="309.706" width="6" height="95.2941" /><rect style="fill: #92c5de;" x="7" y="109.984" width="6" height="295.016" /></g><g class="g" transform="translate(310)"><rect style="fill: #ca0020;" x="1" y="190.588" width="6" height="214.412" /><rect style="fill: #92c5de;" x="7" y="314.226" width="6" height="90.7742" /></g><g class="g" transform="translate(324)"><rect style="fill: #ca0020;" x="1" y="262.059" width="6" height="142.941" /><rect style="fill: #92c5de;" x="7" y="314.226" width="6" height="90.7742" /></g><g class="g" transform="translate(338)"><rect style="fill: #ca0020;" x="1" y="214.412" width="6" height="190.588" /><rect style="fill: #92c5de;" x="7" y="291.532" width="6" height="113.468" /></g><g class="g" transform="translate(352)"><rect style="fill: #ca0020;" x="1" y="190.588" width="6" height="214.412" /><rect style="fill: #92c5de;" x="7" y="291.532" width="6" height="113.468" /></g><g class="g" transform="translate(366)"><rect style="fill: #ca0020;" x="1" y="166.765" width="6" height="238.235" /><rect style="fill: #92c5de;" x="7" y="314.226" width="6" height="90.7742" /></g><g class="g" transform="translate(380)"><rect style="fill: #ca0020;" x="1" y="190.588" width="6" height="214.412" /><rect style="fill: #92c5de;" x="7" y="268.839" width="6" height="136.161" /></g><g class="g" transform="translate(394)"><rect style="fill: #ca0020;" x="1" y="357.353" width="6" height="47.6471" /><rect style="fill: #92c5de;" x="7" y="246.145" width="6" height="158.855" /></g><g class="g" transform="translate(408)"><rect style="fill: #ca0020;" x="1" y="262.059" width="6" height="142.941" /><rect style="fill: #92c5de;" x="7" y="268.839" width="6" height="136.161" /></g><g class="g" transform="translate(422)"><rect style="fill: #ca0020;" x="1" y="262.059" width="6" height="142.941" /><rect style="fill: #92c5de;" x="7" y="200.758" width="6" height="204.242" /></g><g class="g" transform="translate(436)"><rect style="fill: #ca0020;" x="1" y="285.882" width="6" height="119.118" /><rect style="fill: #92c5de;" x="7" y="314.226" width="6" height="90.7742" /></g><g class="g" transform="translate(450)"><rect style="fill: #ca0020;" x="1" y="285.882" width="6" height="119.118" /><rect style="fill: #92c5de;" x="7" y="336.919" width="6" height="68.0807" /></g><g class="g" transform="translate(464)"><rect style="fill: #ca0020;" x="1" y="262.059" width="6" height="142.941" /><rect style="fill: #92c5de;" x="7" y="314.226" width="6" height="90.7742" /></g><g class="g" transform="translate(478)"><rect style="fill: #ca0020;" x="1" y="333.529" width="6" height="71.4706" /><rect style="fill: #92c5de;" x="7" y="405" width="6" height="0" /></g><g class="g" transform="translate(492)"><rect style="fill: #ca0020;" x="1" y="357.353" width="6" height="47.6471" /><rect style="fill: #92c5de;" x="7" y="268.839" width="6" height="136.161" /></g><g class="g" transform="translate(506)"><rect style="fill: #ca0020;" x="1" y="357.353" width="6" height="47.6471" /><rect style="fill: #92c5de;" x="7" y="336.919" width="6" height="68.0807" /></g><g class="g" transform="translate(520)"><rect style="fill: #ca0020;" x="1" y="333.529" width="6" height="71.4706" /><rect style="fill: #92c5de;" x="7" y="336.919" width="6" height="68.0807" /></g><g class="g" transform="translate(534)"><rect style="fill: #ca0020;" x="1" y="381.176" width="6" height="23.8235" /><rect style="fill: #92c5de;" x="7" y="382.306" width="6" height="22.6936" /></g><g class="g" transform="translate(548)"><rect style="fill: #ca0020;" x="1" y="309.706" width="6" height="95.2941" /><rect style="fill: #92c5de;" x="7" y="359.613" width="6" height="45.3871" /></g><g class="g" transform="translate(562)"><rect style="fill: #ca0020;" x="1" y="405" width="6" height="0" /><rect style="fill: #92c5de;" x="7" y="359.613" width="6" height="45.3871" /></g><g class="g" transform="translate(576)"><rect style="fill: #ca0020;" x="1" y="285.882" width="6" height="119.118" /><rect style="fill: #92c5de;" x="7" y="359.613" width="6" height="45.3871" /></g><g class="g" transform="translate(590)"><rect style="fill: #ca0020;" x="1" y="405" width="6" height="0" /><rect style="fill: #92c5de;" x="7" y="291.532" width="6" height="113.468" /></g><g class="g" transform="translate(604)"><rect style="fill: #ca0020;" x="1" y="357.353" width="6" height="47.6471" /><rect style="fill: #92c5de;" x="7" y="359.613" width="6" height="45.3871" /></g><g class="g" transform="translate(618)"><rect style="fill: #ca0020;" x="1" y="357.353" width="6" height="47.6471" /><rect style="fill: #92c5de;" x="7" y="336.919" width="6" height="68.0807" /></g><g class="g" transform="translate(632)"><rect style="fill: #ca0020;" x="1" y="357.353" width="6" height="47.6471" /><rect style="fill: #92c5de;" x="7" y="382.306" width="6" height="22.6936" /></g><g class="g" transform="translate(646)"><rect style="fill: #ca0020;" x="1" y="357.353" width="6" height="47.6471" /><rect style="fill: #92c5de;" x="7" y="336.919" width="6" height="68.0807" /></g><g class="g" transform="translate(660)"><rect style="fill: #ca0020;" x="1" y="357.353" width="6" height="47.6471" /><rect style="fill: #92c5de;" x="7" y="405" width="6" height="0" /></g><g class="g" transform="translate(674)"><rect style="fill: #ca0020;" x="1" y="405" width="6" height="0" /><rect style="fill: #92c5de;" x="7" y="336.919" width="6" height="68.0807" /></g><g class="g" transform="translate(688)"><rect style="fill: #ca0020;" x="1" y="381.176" width="6" height="23.8235" /><rect style="fill: #92c5de;" x="7" y="405" width="6" height="0" /></g><g class="g" transform="translate(702)"><rect style="fill: #ca0020;" x="1" y="381.176" width="6" height="23.8235" /><rect style="fill: #92c5de;" x="7" y="382.306" width="6" height="22.6936" /></g><g class="g" transform="translate(716)"><rect style="fill: #ca0020;" x="1" y="405" width="6" height="0" /><rect style="fill: #92c5de;" x="7" y="359.613" width="6" height="45.3871" /></g><g class="g" transform="translate(730)"><rect style="fill: #ca0020;" x="1" y="381.176" width="6" height="23.8235" /><rect style="fill: #92c5de;" x="7" y="405" width="6" height="0" /></g><g class="g" transform="translate(744)"><rect style="fill: #ca0020;" x="1" y="381.176" width="6" height="23.8235" /><rect style="fill: #92c5de;" x="7" y="382.306" width="6" height="22.6936" /></g><g class="g" transform="translate(758)"><rect style="fill: #ca0020;" x="1" y="381.176" width="6" height="23.8235" /><rect style="fill: #92c5de;" x="7" y="382.306" width="6" height="22.6936" /></g><g class="g" transform="translate(772)"><rect style="fill: #ca0020;" x="1" y="357.353" width="6" height="47.6471" /><rect style="fill: #92c5de;" x="7" y="336.919" width="6" height="68.0807" /></g><g class="g" transform="translate(786)"><rect style="fill: #ca0020;" x="1" y="381.176" width="6" height="23.8235" /><rect style="fill: #92c5de;" x="7" y="382.306" width="6" height="22.6936" /></g><g class="g" transform="translate(800)"><rect style="fill: #ca0020;" x="1" y="381.176" width="6" height="23.8235" /><rect style="fill: #92c5de;" x="7" y="405" width="6" height="0" /></g><g class="g" transform="translate(814)"><rect style="fill: #ca0020;" x="1" y="405" width="6" height="0" /><rect style="fill: #92c5de;" x="7" y="382.306" width="6" height="22.6936" /></g><g class="g" transform="translate(828)"><rect style="fill: #ca0020;" x="1" y="405" width="6" height="0" /><rect style="fill: #92c5de;" x="7" y="359.613" width="6" height="45.3871" /></g><g class="g" transform="translate(842)"><rect style="fill: #ca0020;" x="1" y="381.176" width="6" height="23.8235" /><rect style="fill: #92c5de;" x="7" y="405" width="6" height="0" /></g><g class="g" transform="translate(856)"><rect style="fill: #ca0020;" x="1" y="405" width="6" height="0" /><rect style="fill: #92c5de;" x="7" y="382.306" width="6" height="22.6936" /></g><g class="g" transform="translate(870)"><rect style="fill: #ca0020;" x="1" y="381.176" width="6" height="23.8235" /><rect style="fill: #92c5de;" x="7" y="405" width="6" height="0" /></g><g class="g" transform="translate(884)"><rect style="fill: #ca0020;" x="1" y="405" width="6" height="0" /><rect style="fill: #92c5de;" x="7" y="382.306" width="6" height="22.6936" /></g><g class="g" transform="translate(898)"><rect style="fill: #ca0020;" x="1" y="405" width="6" height="0" /><rect style="fill: #92c5de;" x="7" y="382.306" width="6" height="22.6936" /></g><g class="g" transform="translate(912)"><rect style="fill: #ca0020;" x="1" y="405" width="6" height="0" /><rect style="fill: #92c5de;" x="7" y="382.306" width="6" height="22.6936" /></g><g class="legend" style="opacity: 1;" transform="translate(0)"><rect style="fill: #92c5de;" x="922" width="18" height="18" /><text style="text-anchor: end;" x="916" y="9" dy="0.35em">google</text></g><g class="legend" style="opacity: 1;" transform="translate(0 20)"><rect style="fill: #ca0020;" x="922" width="18" height="18" /><text style="text-anchor: end;" x="916" y="9" dy="0.35em">microsoft</text></g></g></svg>