<svg xmlns="http://www.w3.org/2000/svg" width="1000" height="500"><g transform="translate(40 20)"><g class="x axis" transform="translate(0 405)"><g class="tick" style="opacity: 1;" transform="translate(22.5)"><line x2="0" y2="0" /><text style="font-size: 10px; text-anchor: middle;" x="0" y="3" dx="0.15em" dy="0.55em">1</text></g><g class="tick" style="opacity: 1;" transform="translate(36.5)"><line x2="0" y2="0" /><text style="font-size: 10px; text-anchor: middle;" x="0" y="3" dx="0.15em" dy="0.55em">3</text></g><g class="tick" style="opacity: 1;" transform="translate(50.5)"><line x2="0" y2="0" /><text style="font-size: 10px; text-anchor: middle;" x="0" y="3" dx="0.15em" dy="0.55em">4</text></g><g class="tick" style="opacity: 1;" transform="translate(64.5)"><line x2="0" y2="0" /><text style="font-size: 10px; text-anchor: middle;" x="0" y="3" dx="0.15em" dy="0.55em">5</text></g><g class="tick" style="opacity: 1;" transform="translate(78.5)"><line x2="0" y2="0" /><text style="font-size: 10px; text-anchor: middle;" x="0" y="3" dx="0.15em" dy="0.55em">6</text></g><g class="tick" style="opacity: 1;" transform="translate(92.5)"><line x2="0" y2="0" /><text style="font-size: 10px; text-anchor: middle;" x="0" y="3" dx="0.15em" dy="0.55em">7</text></g><g class="tick" style="opacity: 1;" transform="translate(106.5)"><line x2="0" y2="0" /><text style="font-size: 10px; text-anchor: middle;" x="0" y="3" dx="0.15em" dy="0.55em">8</text></g><g class="tick" style="opacity: 1;" transform="translate(120.5)"><line x2="0" y2="0" /><text style="font-size: 10px; text-anchor: middle;" x="0" y="3" dx="0.15em" dy="0.55em">9</text></g><g class="tick" style="opacity: 1;" transform="translate(134.5)"><line x2="0" y2="0" /><text style="font-size: 10px; text-anchor: middle;" x="0" y="3" dx="0.15em" dy="0.55em">10</text></g><g class="tick" style="opacity: 1;" transform="translate(148.5)"><line x2="0" y2="0" /><text style="font-size: 10px; text-anchor: middle;" x="0" y="3" dx="0.15em" dy="0.55em">11</text></g><g class="tick" style="opacity: 1;" transform="translate(162.5)"><line x2="0" y2="0" /><text style="font-size: 10px; text-anchor: middle;" x="0" y="3" dx="0.15em" dy="0.55em">12</text></g><g class="tick" style="opacity: 1;" transform="translate(176.5)"><line x2="0" y2="0" /><text style="font-size: 10px; text-anchor: middle;" x="0" y="3" dx="0.15em" dy="0.55em">13</text></g><g class="tick" style="opacity: 1;" transform="translate(190.5)"><line x2="0" y2="0" /><text style="font-size: 10px; text-anchor: middle;" x="0" y="3" dx="0.15em" dy="0.55em">14</text></g><g class="tick" style="opacity: 1;" transform="translate(204.5)"><line x2="0" y2="0" /><text style="font-size: 10px; text-anchor: middle;" x="0" y="3" dx="0.15em" dy="0.55em">15</text></g><g class="tick" style="opacity: 1;" transform="translate(218.5)"><line x2="0" y2="0" /><text style="font-size: 10px; text-anchor: middle;" x="0" y="3" dx="0.15em" dy="0.55em">16</text></g><g class="tick" style="opacity: 1;" transform="translate(232.5)"><line x2="0" y2="0" /><text style="font-size: 10px; text-anchor: middle;" x="0" y="3" dx="0.15em" dy="0.55em">17</text></g><g class="tick" style="opacity: 1;" transform="translate(246.5)"><line x2="0" y2="0" /><text style="font-size: 10px; text-anchor: middle;" x="0" y="3" dx="0.15em" dy="0.55em">18</text></g><g class="tick" style="opacity: 1;" transform="translate(260.5)"><line x2="0" y2="0" /><text style="font-size: 10px; text-anchor: middle;" x="0" y="3" dx="0.15em" dy="0.55em">19</text></g><g class="tick" style="opacity: 1;" transform="translate(274.5)"><line x2="0" y2="0" /><text style="font-size: 10px; text-anchor: middle;" x="0" y="3" dx="0.15em" dy="0.55em">20</text></g><g class="tick" style="opacity: 1;" transform="translate(288.5)"><line x2="0" y2="0" /><text style="font-size: 10px; text-anchor: middle;" x="0" y="3" dx="0.15em" dy="0.55em">21</text></g><g class="tick" style="opacity: 1;" transform="translate(302.5)"><line x2="0" y2="0" /><text style="font-size: 10px; text-anchor: middle;" x="0" y="3" dx="0.15em" dy="0.55em">22</text></g><g class="tick" style="opacity: 1;" transform="translate(316.5)"><line x2="0" y2="0" /><text style="font-size: 10px; text-anchor: middle;" x="0" y="3" dx="0.15em" dy="0.55em">23</text></g><g class="tick" style="opacity: 1;" transform="translate(330.5)"><line x2="0" y2="0" /><text style="font-size: 10px; text-anchor: middle;" x="0" y="3" dx="0.15em" dy="0.55em">24</text></g><g class="tick" style="opacity: 1;" transform="translate(344.5)"><line x2="0" y2="0" /><text style="font-size: 10px; text-anchor: middle;" x="0" y="3" dx="0.15em" dy="0.55em">25</text></g><g class="tick" style="opacity: 1;" transform="translate(358.5)"><line x2="0" y2="0" /><text style="font-size: 10px; text-anchor: middle;" x="0" y="3" dx="0.15em" dy="0.55em">26</text></g><g class="tick" style="opacity: 1;" transform="translate(372.5)"><line x2="0" y2="0" /><text style="font-size: 10px; text-anchor: middle;" x="0" y="3" dx="0.15em" dy="0.55em">27</text></g><g class="tick" style="opacity: 1;" transform="translate(386.5)"><line x2="0" y2="0" /><text style="font-size: 10px; text-anchor: middle;" x="0" y="3" dx="0.15em" dy="0.55em">28</text></g><g class="tick" style="opacity: 1;" transform="translate(400.5)"><line x2="0" y2="0" /><text style="font-size: 10px; text-anchor: middle;" x="0" y="3" dx="0.15em" dy="0.55em">29</text></g><g class="tick" style="opacity: 1;" transform="translate(414.5)"><line x2="0" y2="0" /><text style="font-size: 10px; text-anchor: middle;" x="0" y="3" dx="0.15em" dy="0.55em">30</text></g><g class="tick" style="opacity: 1;" transform="translate(428.5)"><line x2="0" y2="0" /><text style="font-size: 10px; text-anchor: middle;" x="0" y="3" dx="0.15em" dy="0.55em">31</text></g><g class="tick" style="opacity: 1;" transform="translate(442.5)"><line x2="0" y2="0" /><text style="font-size: 10px; text-anchor: middle;" x="0" y="3" dx="0.15em" dy="0.55em">32</text></g><g class="tick" style="opacity: 1;" transform="translate(456.5)"><line x2="0" y2="0" /><text style="font-size: 10px; text-anchor: middle;" x="0" y="3" dx="0.15em" dy="0.55em">33</text></g><g class="tick" style="opacity: 1;" transform="translate(470.5)"><line x2="0" y2="0" /><text style="font-size: 10px; text-anchor: middle;" x="0" y="3" dx="0.15em" dy="0.55em">34</text></g><g class="tick" style="opacity: 1;" transform="translate(484.5)"><line x2="0" y2="0" /><text style="font-size: 10px; text-anchor: middle;" x="0" y="3" dx="0.15em" dy="0.55em">35</text></g><g class="tick" style="opacity: 1;" transform="translate(498.5)"><line x2="0" y2="0" /><text style="font-size: 10px; text-anchor: middle;" x="0" y="3" dx="0.15em" dy="0.55em">36</text></g><g class="tick" style="opacity: 1;" transform="translate(512.5)"><line x2="0" y2="0" /><text style="font-size: 10px; text-anchor: middle;" x="0" y="3" dx="0.15em" dy="0.55em">37</text></g><g class="tick" style="opacity: 1;" transform="translate(526.5)"><line x2="0" y2="0" /><text style="font-size: 10px; text-anchor: middle;" x="0" y="3" dx="0.15em" dy="0.55em">38</text></g><g class="tick" style="opacity: 1;" transform="translate(540.5)"><line x2="0" y2="0" /><text style="font-size: 10px; text-anchor: middle;" x="0" y="3" dx="0.15em" dy="0.55em">39</text></g><g class="tick" style="opacity: 1;" transform="translate(554.5)"><line x2="0" y2="0" /><text style="font-size: 10px; text-anchor: middle;" x="0" y="3" dx="0.15em" dy="0.55em">40</text></g><g class="tick" style="opacity: 1;" transform="translate(568.5)"><line x2="0" y2="0" /><text style="font-size: 10px; text-anchor: middle;" x="0" y="3" dx="0.15em" dy="0.55em">41</text></g><g class="tick" style="opacity: 1;" transform="translate(582.5)"><line x2="0" y2="0" /><text style="font-size: 10px; text-anchor: middle;" x="0" y="3" dx="0.15em" dy="0.55em">42</text></g><g class="tick" style="opacity: 1;" transform="translate(596.5)"><line x2="0" y2="0" /><text style="font-size: 10px; text-anchor: middle;" x="0" y="3" dx="0.15em" dy="0.55em">43</text></g><g class="tick" style="opacity: 1;" transform="translate(610.5)"><line x2="0" y2="0" /><text style="font-size: 10px; text-anchor: middle;" x="0" y="3" dx="0.15em" dy="0.55em">44</text></g><g class="tick" style="opacity: 1;" transform="translate(624.5)"><line x2="0" y2="0" /><text style="font-size: 10px; text-anchor: middle;" x="0" y="3" dx="0.15em" dy="0.55em">45</text></g><g class="tick" style="opacity: 1;" transform="translate(638.5)"><line x2="0" y2="0" /><text style="font-size: 10px; text-anchor: middle;" x="0" y="3" dx="0.15em" dy="0.55em">46</text></g><g class="tick" style="opacity: 1;" transform="translate(652.5)"><line x2="0" y2="0" /><text style="font-size: 10px; text-anchor: middle;" x="0" y="3" dx="0.15em" dy="0.55em">47</text></g><g class="tick" style="opacity: 1;" transform="translate(666.5)"><line x2="0" y2="0" /><text style="font-size: 10px; text-anchor: middle;" x="0" y="3" dx="0.15em" dy="0.55em">48</text></g><g class="tick" style="opacity: 1;" transform="translate(680.5)"><line x2="0" y2="0" /><text style="font-size: 10px; text-anchor: middle;" x="0" y="3" dx="0.15em" dy="0.55em">49</text></g><g class="tick" style="opacity: 1;" transform="translate(694.5)"><line x2="0" y2="0" /><text style="font-size: 10px; text-anchor: middle;" x="0" y="3" dx="0.15em" dy="0.55em">50</text></g><g class="tick" style="opacity: 1;" transform="translate(708.5)"><line x2="0" y2="0" /><text style="font-size: 10px; text-anchor: middle;" x="0" y="3" dx="0.15em" dy="0.55em">51</text></g><g class="tick" style="opacity: 1;" transform="translate(722.5)"><line x2="0" y2="0" /><text style="font-size: 10px; text-anchor: middle;" x="0" y="3" dx="0.15em" dy="0.55em">52</text></g><g class="tick" style="opacity: 1;" transform="translate(736.5)"><line x2="0" y2="0" /><text style="font-size: 10px; text-anchor: middle;" x="0" y="3" dx="0.15em" dy="0.55em">53</text></g><g class="tick" style="opacity: 1;" transform="translate(750.5)"><line x2="0" y2="0" /><text style="font-size: 10px; text-anchor: middle;" x="0" y="3" dx="0.15em" dy="0.55em">54</text></g><g class="tick" style="opacity: 1;" transform="translate(764.5)"><line x2="0" y2="0" /><text style="font-size: 10px; text-anchor: middle;" x="0" y="3" dx="0.15em" dy="0.55em">57</text></g><g class="tick" style="opacity: 1;" transform="translate(778.5)"><line x2="0" y2="0" /><text style="font-size: 10px; text-anchor: middle;" x="0" y="3" dx="0.15em" dy="0.55em">59</text></g><g class="tick" style="opacity: 1;" transform="translate(792.5)"><line x2="0" y2="0" /><text style="font-size: 10px; text-anchor: middle;" x="0" y="3" dx="0.15em" dy="0.55em">60</text></g><g class="tick" style="opacity: 1;" transform="translate(806.5)"><line x2="0" y2="0" /><text style="font-size: 10px; text-anchor: middle;" x="0" y="3" dx="0.15em" dy="0.55em">63</text></g><g class="tick" style="opacity: 1;" transform="translate(820.5)"><line x2="0" y2="0" /><text style="font-size: 10px; text-anchor: middle;" x="0" y="3" dx="0.15em" dy="0.55em">65</text></g><g class="tick" style="opacity: 1;" transform="translate(834.5)"><line x2="0" y2="0" /><text style="font-size: 10px; text-anchor: middle;" x="0" y="3" dx="0.15em" dy="0.55em">67</text></g><g class="tick" style="opacity: 1;" transform="translate(848.5)"><line x2="0" y2="0" /><text style="font-size: 10px; text-anchor: middle;" x="0" y="3" dx="0.15em" dy="0.55em">70</text></g><g class="tick" style="opacity: 1;" transform="translate(862.5)"><line x2="0" y2="0" /><text style="font-size: 10px; text-anchor: middle;" x="0" y="3" dx="0.15em" dy="0.55em">73</text></g><g class="tick" style="opacity: 1;" transform="translate(876.5)"><line x2="0" y2="0" /><text style="font-size: 10px; text-anchor: middle;" x="0" y="3" dx="0.15em" dy="0.55em">77</text></g><g class="tick" style="opacity: 1;" transform="translate(890.5)"><line x2="0" y2="0" /><text style="font-size: 10px; text-anchor: middle;" x="0" y="3" dx="0.15em" dy="0.55em">80</text></g><g class="tick" style="opacity: 1;" transform="translate(904.5)"><line x2="0" y2="0" /><text style="font-size: 10px; text-anchor: middle;" x="0" y="3" dx="0.15em" dy="0.55em">86</text></g><g class="tick" style="opacity: 1;" transform="translate(918.5)"><line x2="0" y2="0" /><text style="font-size: 10px; text-anchor: middle;" x="0" y="3" dx="0.15em" dy="0.55em">135</text></g><path class="domain" d="M 0 0 V 0 H 940 V 0" /></g><g class="y axis" style="opacity: 1;"><g class="tick" style="opacity: 1;" transform="translate(0 405)"><line x2="-6" y2="0" /><text style="text-anchor: end;" x="-9" y="0" dy="0.32em">0</text></g><g class="tick" style="opacity: 1;" transform="translate(0 347.585)"><line x2="-6" y2="0" /><text style="text-anchor: end;" x="-9" y="0" dy="0.32em">1</text></g><g class="tick" style="opacity: 1;" transform="translate(0 290.171)"><line x2="-6" y2="0" /><text style="text-anchor: end;" x="-9" y="0" dy="0.32em">2</text></g><g class="tick" style="opacity: 1;" transform="translate(0 232.756)"><line x2="-6" y2="0" /><text style="text-anchor: end;" x="-9" y="0" dy="0.32em">3</text></g><g class="tick" style="opacity: 1;" transform="translate(0 175.341)"><line x2="-6" y2="0" /><text style="text-anchor: end;" x="-9" y="0" dy="0.32em">4</text></g><g class="tick" style="opacity: 1;" transform="translate(0 117.926)"><line x2="-6" y2="0" /><text style="text-anchor: end;" x="-9" y="0" dy="0.32em">5</text></g><g class="tick" style="opacity: 1;" transform="translate(0 60.5118)"><line x2="-6" y2="0" /><text style="text-anchor: end;" x="-9" y="0" dy="0.32em">6</text></g><g class="tick" style="opacity: 1;" transform="translate(0 3.09706)"><line x2="-6" y2="0" /><text style="text-anchor: end;" x="-9" y="0" dy="0.32em">7</text></g><path class="domain" d="M -6 0 H 0 V 405 H -6" /><text style="font-weight: bold; text-anchor: end;" transform="rotate(-90)" y="6" dy="0.71em">Percentage (%)</text></g><g class="g" transform="translate(16)"><rect style="fill: #ca0020;" x="1" y="357.353" width="6" height="47.6471" /><rect style="fill: #92c5de;" x="7" y="405" width="6" height="0" /></g><g class="g" transform="translate(30)"><rect style="fill: #ca0020;" x="1" y="405" width="6" height="0" /><rect style="fill: #92c5de;" x="7" y="359.613" width="6" height="45.3871" /></g><g class="g" transform="translate(44)"><rect style="fill: #ca0020;" x="1" y="405" width="6" height="0" /><rect style="fill: #92c5de;" x="7" y="382.306" width="6" height="22.6936" /></g><g class="g" transform="translate(58)"><rect style="fill: #ca0020;" x="1" y="381.176" width="6" height="23.8235" /><rect style="fill: #92c5de;" x="7" y="359.613" width="6" height="45.3871" /></g><g class="g" transform="translate(72)"><rect style="fill: #ca0020;" x="1" y="405" width="6" height="0" /><rect style="fill: #92c5de;" x="7" y="291.532" width="6" height="113.468" /></g><g class="g" transform="translate(86)"><rect style="fill: #ca0020;" x="1" y="381.176" width="6" height="23.8235" /><rect style="fill: #92c5de;" x="7" y="382.306" width="6" height="22.6936" /></g><g class="g" transform="translate(100)"><rect style="fill: #ca0020;" x="1" y="357.353" width="6" height="47.6471" /><rect style="fill: #92c5de;" x="7" y="268.839" width="6" height="136.161" /></g><g class="g" transform="translate(114)"><rect style="fill: #ca0020;" x="1" y="309.706" width="6" height="95.2941" /><rect style="fill: #92c5de;" x="7" y="268.839" width="6" height="136.161" /></g><g class="g" transform="translate(128)"><rect style="fill: #ca0020;" x="1" y="190.588" width="6" height="214.412" /><rect style="fill: #92c5de;" x="7" y="268.839" width="6" height="136.161" /></g><g class="g" transform="translate(142)"><rect style="fill: #ca0020;" x="1" y="357.353" width="6" height="47.6471" /><rect style="fill: #92c5de;" x="7" y="132.677" width="6" height="272.323" /></g><g class="g" transform="translate(156)"><rect style="fill: #ca0020;" x="1" y="262.059" width="6" height="142.941" /><rect style="fill: #92c5de;" x="7" y="223.452" width="6" height="181.548" /></g><g class="g" transform="translate(170)"><rect style="fill: #ca0020;" x="1" y="238.235" width="6" height="166.765" /><rect style="fill: #92c5de;" x="7" y="178.064" width="6" height="226.936" /></g><g class="g" transform="translate(184)"><rect style="fill: #ca0020;" x="1" y="214.412" width="6" height="190.588" /><rect style="fill: #92c5de;" x="7" y="246.145" width="6" height="158.855" /></g><g class="g" transform="translate(198)"><rect style="fill: #ca0020;" x="1" y="214.412" width="6" height="190.588" /><rect style="fill: #92c5de;" x="7" y="132.677" width="6" height="272.323" /></g><g class="g" transform="translate(212)"><rect style="fill: #ca0020;" x="1" y="166.765" width="6" height="238.235" /><rect style="fill: #92c5de;" x="7" y="155.371" width="6" height="249.629" /></g><g class="g" transform="translate(226)"><rect style="fill: #ca0020;" x="1" y="214.412" width="6" height="190.588" /><rect style="fill: #92c5de;" x="7" y="178.064" width="6" height="226.936" /></g><g class="g" transform="translate(240)"><rect style="fill: #ca0020;" x="1" y="119.118" width="6" height="285.882" /><rect style="fill: #92c5de;" x="7" y="223.452" width="6" height="181.548" /></g><g class="g" transform="translate(254)"><rect style="fill: #ca0020;" x="1" y="0" width="6" height="405" /><rect style="fill: #92c5de;" x="7" y="314.226" width="6" height="90.7742" /></g><g class="g" transform="translate(268)"><rect style="fill: #ca0020;" x="1" y="285.882" width="6" height="119.118" /><rect style="fill: #92c5de;" x="7" y="223.452" width="6" height="181.548" /></g><g class="g" transform="translate(282)"><rect style="fill: #ca0020;" x="1" y="95.2941" width="6" height="309.706" /><rect style="fill: #92c5de;" x="7" y="223.452" width="6" height="181.548" /></g><g class="g" transform="translate(296)"><rect style="fill: #ca0020;" x="1" y="309.706" width="6" height="95.2941" /><rect style="fill: #92c5de;" x="7" y="109.984" width="6" height="295.016" /></g><g class="g" transform="translate(310)"><rect style="fill: #ca0020;" x="1" y="190.588" width="6" height="214.412" /><rect style="fill: #92c5de;" x="7" y="314.226" width="6" height="90.7742" /></g><g class="g" transform="translate(324)"><rect style="fill: #ca0020;" x="1" y="262.059" width="6" height="142.941" /><rect style="fill: #92c5de;" x="7" y="314.226" width="6" height="90.7742" /></g><g class="g" transform="translate(338)"><rect style="fill: #ca0020;" x="1" y="214.412" width="6" height="190.588" /><rect style="fill: #92c5de;" x="7" y="291.532" width="6" height="113.468" /></g><g class="g" transform="translate(352)"><rect style="fill: #ca0020;" x="1" y="190.588" width="6" height="214.412" /><rect style="fill: #92c5de;" x="7" y="291.532" width="6" height="113.468" /></g><g class="g" transform="translate(366)"><rect style="fill: #ca0020;" x="1" y="166.765" width="6" height="238.235" /><rect style="fill: #92c5de;" x="7" y="314.226" width="6" height="90.7742" /></g><g class="g" transform="translate(380)"><rect style="fill: #ca0020;" x="1" y="190.588" width="6" height="214.412" /><rect style="fill: #92c5de;" x="7" y="268.839" width="6" height="136.161" /></g><g class="g" transform="translate(394)"><rect style="fill: #ca0020;" x="1" y="357.353" width="6" height="47.6471" /><rect style="fill: #92c5de;" x="7" y="246.145" width="6" height="158.855" /></g><g class="g" transform="translate(408)"><rect style="fill: #ca0020;" x="1" y="262.059" width="6" height="142.941" /><rect style="fill: #92c5de;" x="7" y="268.839" width="6" height="136.161" /></g><g class="g" transform="translate(422)"><rect style="fill: #ca0020;" x="1" y="262.059" width="6" height="142.941" /><rect style="fill: #92c5de;" x="7" y="200.758" width="6" height="204.242" /></g><g class="g" transform="translate(436)"><rect style="fill: #ca0020;" x="1" y="285.882" width="6" height="119.118" /><rect style="fill: #92c5de;" x="7" y="314.226" width="6" height="90.7742" /></g><g class="g" transform="translate(450)"><rect style="fill: #ca0020;" x="1" y="285.882" width="6" height="119.118" /><rect style="fill: #92c5de;" x="7" y="336.919" width="6" height="68.0807" /></g><g class="g" transform="translate(464)"><rect style="fill: #ca0020;" x="1" y="262.059" width="6" height="142.941" /><rect style="fill: #92c5de;" x="7" y="314.226" width="6" height="90.7742" /></g><g class="g" transform="translate(478)"><rect style="fill: #ca0020;" x="1" y="333.529" width="6" height="71.4706" /><rect style="fill: #92c5de;" x="7" y="405" width="6" height="0" /></g><g class="g" transform="translate(492)"><rect style="fill: #ca0020;" x="1" y="357.353" width="6" height="47.6471" /><rect style="fill: #92c5de;" x="7" y="268.839" width="6" height="136.161" /></g><g class="g" transform="translate(506)"><rect style="fill: #ca0020;" x="1" y="357.353" width="6" height="47.6471" /><rect style="fill: #92c5de;" x="7" y="336.919" width="6" height="68.0807" /></g><g class="g" transform="translate(520)"><rect style="fill: #ca0020;" x="1" y="333.529" width="6" height="71.4706" /><rect style="fill: #92c5de;" x="7" y="336.919" width="6" height="68.0807" /></g><g class="g" transform="translate(534)"><rect style="fill: #ca0020;" x="1" y="381.176" width="6" height="23.8235" /><rect style="fill: #92c5de;" x="7" y="382.306" width="6" height="22.6936" /></g><g class="g" transform="translate(548)"><rect style="fill: #ca0020;" x="1" y="309.706" width="6" height="95.2941" /><rect style="fill: #92c5de;" x="7" y="359.613" width="6" height="45.3871" /></g><g class="g" transform="translate(562)"><rect style="fill: #ca0020;" x="1" y="405" width="6" height="0" /><rect style="fill: #92c5de;" x="7" y="359.613" width="6" height="45.3871" /></g><g class="g" transform="translate(576)"><rect style="fill: #ca0020;" x="1" y="285.882" width="6" height="119.118" /><rect style="fill: #92c5de;" x="7" y="359.613" width="6" height="45.3871" /></g><g class="g" transform="translate(590)"><rect style="fill: #ca0020;" x="1" y="405" width="6" height="0" /><rect style="fill: #92c5de;" x="7" y="291.532" width="6" height="113.468" /></g><g class="g" transform="translate(604)"><rect style="fill: #ca0020;" x="1" y="357.353" width="6" height="47.6471" /><rect style="fill: #92c5de;" x="7" y="359.613" width="6" height="45.3871" /></g><g class="g" transform="translate(618)"><rect style="fill: #ca0020;" x="1" y="357.353" width="6" height="47.6471" /><rect style="fill: #92c5de;" x="7" y="336.919" width="6" height="68.0807" /></g><g class="g" transform="translate(632)"><rect style="fill: #ca0020;" x="1" y="357.353" width="6" height="47.6471" /><rect style="fill: #92c5de;" x="7" y="382.306" width="6" height="22.6936" /></g><g class="g" transform="translate(646)"><rect style="fill: #ca0020;" x="1" y="357.353" width="6" height="47.6471" /><rect style="fill: #92c5de;" x="7" y="336.919" width="6" height="68.0807" /></g><g class="g" transform="translate(660)"><rect style="fill: #ca0020;" x="1" y="357.353" width="6" height="47.6471" /><rect style="fill: #92c5de;" x="7" y="405" width="6" height="0" /></g><g class="g" transform="translate(674)"><rect style="fill: #ca0020;" x="1" y="405" width="6" height="0" /><rect style="fill: #92c5de;" x="7" y="336.919" width="6" height="68.0807" /></g><g class="g" transform="translate(688)"><rect style="fill: #ca0020;" x="1" y="381.176" width="6" height="23.8235" /><rect style="fill: #92c5de;" x="7" y="405" width="6" height="0" /></g><g class="g" transform="translate(702)"><rect style="fill: #ca0020;" x="1" y="381.176" width="6" height="23.8235" /><rect style="fill: #92c5de;" x="7" y="382.306" width="6" height="22.6936" /></g><g class="g" transform="translate(716)"><rect style="fill: #ca0020;" x="1" y="405" width="6" height="0" /><rect style="fill: #92c5de;" x="7" y="359.613" width="6" height="45.3871" /></g><g class="g" transform="translate(730)"><rect style="fill: #ca0020;" x="1" y="381.176" width="6" height="23.8235" /><rect style="fill: #92c5de;" x="7" y="405" width="6" height="0" /></g><g class="g" transform="translate(744)"><rect style="fill: #ca0020;" x="1" y="381.176" width="6" height="23.8235" /><rect style="fill: #92c5de;" x="7" y="382.306" width="6" height="22.6936" /></g><g class="g" transform="translate(758)"><rect style="fill: #ca0020;" x="1" y="381.176" width="6" height="23.8235" /><rect style="fill: #92c5de;" x="7" y="382.306" width="6" height="22.6936" /></g><g class="g" transform="translate(772)"><rect style="fill: #ca0020;" x="1" y="357.353" width="6" height="47.6471" /><rect style="fill: #92c5de;" x="7" y="336.919" width="6" height="68.0807" /></g><g class="g" transform="translate(786)"><rect style="fill: #ca0020;" x="1" y="381.176" width="6" height="23.8235" /><rect style="fill: #92c5de;" x="7" y="382.306" width="6" height="22.6936" /></g><g class="g" transform="translate(800)"><rect style="fill: #ca0020;" x="1" y="381.176" width="6" height="23.8235" /><rect style="fill: #92c5de;" x="7" y="405" width="6" height="0" /></g><g class="g" transform="translate(814)"><rect style="fill: #ca0020;" x="1" y="405" width="6" height="0" /><rect style="fill: #92c5de;" x="7" y="382.306" width="6" height="22.6936" /></g><g class="g" transform="translate(828)"><rect style="fill: #ca0020;" x="1" y="405" width="6" height="0" /><rect style="fill: #92c5de;" x="7" y="359.613" width="6" height="45.3871" /></g><g class="g" transform="translate(842)"><rect style="fill: #ca0020;" x="1" y="381.176" width="6" height="23.8235" /><rect style="fill: #92c5de;" x="7" y="405" width="6" height="0" /></g><g class="g" transform="translate(856)"><rect style="fill: #ca0020;" x="1" y="405" width="6" height="0" /><rect style="fill: #92c5de;" x="7" y="382.306" width="6" height="22.6936" /></g><g class="g" transform="translate(870)"><rect style="fill: #ca0020;" x="1" y="381.176" width="6" height="23.8235" /><rect style="fill: #92c5de;" x="7" y="405" width="6" height="0" /></g><g class="g" transform="translate(884)"><rect style="fill: #ca0020;" x="1" y="405" width="6" height="0" /><rect style="fill: #92c5de;" x="7" y="382.306" width="6" height="22.6936" /></g><g class="g" transform="translate(898)"><rect style="fill: #ca0020;" x="1" y="405" width="6" height="0" /><rect style="fill: #92c5de;" x="7" y="382.306" width="6" height="22.6936" /></g><g class="g" transform="translate(912)"><rect style="fill: #ca0020;" x="1" y="405" width="6" height="0" /><rect style="fill: #92c5de;" x="7" y="382.306" width="6" height="22.6936" /></g><g class="legend" style="opacity: 1;" transform="translate(0)"><rect style="fill: #92c5de;" x="922" width="18" height="18" /><text style="text-anchor: end;" x="916" y="9" dy="0.35em">google</text></g><g class="legend" style="opacity: 1;" transform="translate(0 20)"><rect style="fill: #ca0020;" x="922" width="18" height="18" /><text style="text-anchor: end;" x="916" y="9" dy="0.35em">microsoft</text></g></g></svg>